<svg xmlns="http://www.w3.org/2000/svg" xmlns:xlink="http://www.w3.org/1999/xlink" viewBox="0 0 558.94 151.4"><defs><style>.cls-1{fill:url(#Degradado_sin_nombre_11);}.cls-2{fill:#8ea2a5;}</style><linearGradient id="Degradado_sin_nombre_11" x1="71.75" y1="152.86" x2="225.99" y2="-1.38" gradientUnits="userSpaceOnUse"><stop offset="0.05" stop-color="#984d97"/><stop offset="0.51" stop-color="#3fa7cc"/><stop offset="0.95" stop-color="#e5bd15"/></linearGradient></defs><g id="Capa_2" data-name="Capa 2"><path class="cls-1" d="M262.67,103.23l0,0A9.52,9.52,0,0,0,250.91,102a31,31,0,1,1-1.36-53.69,9.39,9.39,0,0,0,11.16-1.58l0,0a9.41,9.41,0,0,0-2.17-14.91,49.79,49.79,0,1,0,2.58,86A9.35,9.35,0,0,0,262.67,103.23Z"/><path class="cls-1" d="M175,32a26.43,26.43,0,0,0-21.28-6,27.1,27.1,0,0,0-18.27,11.09c-5.27,7.42-6.69,15.61-3.61,24.42,1.28,3.67,14.76,42.8,21.82,61.09a4.24,4.24,0,0,0,7.91,0c5.75-14.79,15.8-43.35,20.76-58.42,2.31-6.62,3.45-10.63,1.93-17.21A27.39,27.39,0,0,0,175,32ZM157.48,62.3a9.17,9.17,0,1,1,9.35-9.07A9.2,9.2,0,0,1,157.48,62.3Z"/><path class="cls-1" d="M124.28,28.71c-3.6-3.92-10-3.73-13.74,0L84.93,54.37a3,3,0,0,1-4.29,0L55,28.75c-3.77-3.77-10.14-4-13.75,0a9.35,9.35,0,0,0-2.44,6.36v81a9.3,9.3,0,1,0,18.59,0V64.76a3,3,0,0,1,5.17-2.14L76.14,76.16a9.5,9.5,0,0,0,13.29,0L103,62.62a3,3,0,0,1,5.17,2.14V115.7a9.56,9.56,0,0,0,8.38,9.65,9.29,9.29,0,0,0,10.21-9.25v-81A9.31,9.31,0,0,0,124.28,28.71Z"/><path class="cls-2" d="M311.39,51.23l-6.32-20.89V51.23h-5V25.6h9.35l4.5,15.34,4.73-15.34H328V51.23h-6V30.34L315.5,51.23Z"/><path class="cls-2" d="M345.69,25.6l8,25.63h-6.45L345.68,46h-8.29l-1.6,5.28h-5.26l8.21-25.63Zm-6.86,15.62h5.43l-2.69-9Z"/><path class="cls-2" d="M362.57,41.71v9.52h-6.1V25.6h10.1a14.44,14.44,0,0,1,5.17.73,7.65,7.65,0,0,1,3.2,2.58,7.33,7.33,0,0,1,1.41,4.56,9.56,9.56,0,0,1-.75,3.7A6.62,6.62,0,0,1,373.48,40a7.68,7.68,0,0,1-2.66,1.37,17.07,17.07,0,0,1-4,.34Zm-.21-4.65h3.91a4,4,0,0,0,3.13-1,3.47,3.47,0,0,0,.9-2.36,3.19,3.19,0,0,0-1-2.48,4.41,4.41,0,0,0-3.05-.92h-3.89Z"/><path class="cls-2" d="M390.72,25.6l8,25.63h-6.45L390.71,46h-8.28l-1.61,5.28h-5.26l8.21-25.63Zm-6.85,15.62h5.43l-2.69-9Z"/><path class="cls-2" d="M306,62.25V87.87h-6V62.25Z"/><path class="cls-2" d="M330.88,62.25V87.87h-5.12l-10-17.3c0,.44,0,.72,0,.86a10.28,10.28,0,0,1,.08,1.11V87.87h-4.68V62.25h6.47l8.72,15.11q-.12-1.12-.12-1.71V62.25Z"/><path class="cls-2" d="M352.26,62.25v5.07h-6.34V87.87h-6.08V67.32h-6.39V62.25Z"/><path class="cls-2" d="M373.14,67.13h-12.2v5.26h9.59v4.82h-9.59v5.6h12.2v5.06h-18.3V62.25h18.3Z"/><path class="cls-2" d="M382.79,77.72V87.87h-6.05V62.25H388a14.37,14.37,0,0,1,5,.72,6.47,6.47,0,0,1,3.12,2.66,7.76,7.76,0,0,1,1.24,4.29,6.83,6.83,0,0,1-4.45,6.63l4.73,11.32H391l-3.93-10.15Zm0-10.91v6.54h3.68a9.5,9.5,0,0,0,2.61-.26A2.9,2.9,0,0,0,390.54,72a3.36,3.36,0,0,0,.64-2,3.12,3.12,0,0,0-.64-1.92,2.65,2.65,0,0,0-1.39-1,13.18,13.18,0,0,0-2.82-.2Z"/><path class="cls-2" d="M414.6,62.25l8,25.62h-6.45l-1.58-5.27H406.3l-1.6,5.27h-5.26l8.21-25.62Zm-6.86,15.62h5.43l-2.69-9Z"/><path class="cls-2" d="M445.2,71.79l-6.29.39c-.09-3.62-1.5-5.42-4.23-5.42q-4.69,0-4.7,8.35c0,3.22.42,5.4,1.28,6.54a4.18,4.18,0,0,0,3.57,1.72c2.48,0,4-1.62,4.55-4.84l5.82.35a10.31,10.31,0,0,1-3.42,7,11.47,11.47,0,0,1-15.28-1.11q-3.19-3.51-3.19-9.71a14.34,14.34,0,0,1,3.08-9.49,10.35,10.35,0,0,1,8.41-3.7Q444,61.86,445.2,71.79Z"/><path class="cls-2" d="M464.89,62.25v5.07h-6.34V87.87h-6.08V67.32h-6.39V62.25Z"/><path class="cls-2" d="M473.45,62.25V87.87h-6V62.25Z"/><path class="cls-2" d="M497.65,62.25l-7.74,25.62h-6.45l-7.7-25.62h6.39l5.13,18.32,5.34-18.32Z"/><path class="cls-2" d="M509.07,88.27a9.34,9.34,0,0,1-8-3.89,15.57,15.57,0,0,1-2.83-9.4,15,15,0,0,1,2.87-9.37,9.69,9.69,0,0,1,8.18-3.75,9.14,9.14,0,0,1,8.09,4A15.87,15.87,0,0,1,520.1,75a15.49,15.49,0,0,1-2.81,9.41A9.58,9.58,0,0,1,509.07,88.27Zm.17-21.51q-4.73,0-4.72,8.29t4.72,8.32q4.57,0,4.57-8.3T509.24,66.76Z"/><path class="cls-2" d="M320.71,108.43l-6.29.4q-.14-5.43-4.23-5.43-4.71,0-4.71,8.36,0,4.81,1.28,6.54a4.23,4.23,0,0,0,3.58,1.71q3.72,0,4.55-4.84l5.82.36a10.36,10.36,0,0,1-3.43,7A11.49,11.49,0,0,1,302,121.4q-3.18-3.51-3.18-9.7a14.35,14.35,0,0,1,3.08-9.5,10.35,10.35,0,0,1,8.41-3.7Q319.55,98.5,320.71,108.43Z"/><path class="cls-2" d="M344.36,98.9v15.95a14.26,14.26,0,0,1-.88,5.76,6.83,6.83,0,0,1-3.26,3.09,16.13,16.13,0,0,1-12,.12,7.26,7.26,0,0,1-3.27-3.09,12.58,12.58,0,0,1-1.09-5.88V98.9h6.51v15.95a9.77,9.77,0,0,0,.35,3,2.86,2.86,0,0,0,1.39,1.55,5.27,5.27,0,0,0,2.56.57,5.8,5.8,0,0,0,2.75-.56,2.79,2.79,0,0,0,1.41-1.49,9.85,9.85,0,0,0,.35-3.11V98.9Z"/><path class="cls-2" d="M355.21,119.45H365.4v5.07H349.13V98.9h6.08Z"/><path class="cls-2" d="M382.64,98.9V104h-6.35v20.56h-6.08V104h-6.38V98.9Z"/><path class="cls-2" d="M405.4,98.9v15.95a14.26,14.26,0,0,1-.88,5.76,6.81,6.81,0,0,1-3.25,3.09,16.13,16.13,0,0,1-12,.12,7.29,7.29,0,0,1-3.28-3.09,12.71,12.71,0,0,1-1.09-5.88V98.9h6.52v15.95a9.48,9.48,0,0,0,.35,3,2.84,2.84,0,0,0,1.38,1.55,5.31,5.31,0,0,0,2.57.57,5.82,5.82,0,0,0,2.75-.56,2.86,2.86,0,0,0,1.41-1.49,9.92,9.92,0,0,0,.34-3.11V98.9Z"/><path class="cls-2" d="M416.22,114.36v10.16h-6.05V98.9h11.27a14.35,14.35,0,0,1,5,.72,6.42,6.42,0,0,1,3.13,2.65,7.84,7.84,0,0,1,1.23,4.3,6.82,6.82,0,0,1-4.45,6.62l4.74,11.33h-6.64l-3.93-10.16Zm0-10.9V110h3.68a10.15,10.15,0,0,0,2.62-.25,2.94,2.94,0,0,0,1.45-1.13,3.27,3.27,0,0,0,.64-2,3.06,3.06,0,0,0-.64-1.91,2.68,2.68,0,0,0-1.39-1,13.34,13.34,0,0,0-2.81-.19Z"/><path class="cls-2" d="M448,98.9l8,25.62H449.6L448,119.24h-8.28l-1.61,5.28h-5.26l8.21-25.62Zm-6.85,15.61h5.43l-2.69-9Z"/><path class="cls-2" d="M464.89,119.45h10.2v5.07H458.81V98.9h6.08Z"/></g></svg>