<svg xmlns="http://www.w3.org/2000/svg" viewBox="0 0 558.94 151.4"><defs><style>.cls-1{fill:#999;}.cls-2{fill:#aeaeae;}.cls-3{fill:#636363;}.cls-4{fill:#8ea2a5;}</style></defs><g id="Capa_2" data-name="Capa 2"><path class="cls-1" d="M262.67,103.43l0,0a9.54,9.54,0,0,0-11.74-1.25,31,31,0,1,1-1.36-53.68,9.41,9.41,0,0,0,11.16-1.59l0,0A9.41,9.41,0,0,0,258.57,32a49.79,49.79,0,1,0,2.58,86A9.36,9.36,0,0,0,262.67,103.43Z"/><path class="cls-2" d="M175,32.24a26.5,26.5,0,0,0-21.28-6,27.14,27.14,0,0,0-18.27,11.09c-5.27,7.42-6.69,15.62-3.61,24.42,1.28,3.67,14.76,42.8,21.82,61.1a4.24,4.24,0,0,0,7.91,0c5.75-14.79,15.8-43.35,20.76-58.42,2.31-6.61,3.45-10.63,1.93-17.21A27.39,27.39,0,0,0,175,32.24ZM157.48,62.5a9.17,9.17,0,1,1,9.35-9.07A9.19,9.19,0,0,1,157.48,62.5Z"/><path class="cls-3" d="M124.28,28.92c-3.6-3.93-10-3.74-13.74,0L84.93,54.57a3,3,0,0,1-4.29,0L55,29c-3.77-3.77-10.14-4-13.75,0a9.31,9.31,0,0,0-2.44,6.35v81a9.3,9.3,0,1,0,18.59,0V65a3,3,0,0,1,5.17-2.14L76.14,76.36a9.5,9.5,0,0,0,13.29,0L103,62.82A3,3,0,0,1,108.14,65V115.9a9.56,9.56,0,0,0,8.38,9.65,9.29,9.29,0,0,0,10.21-9.25v-81A9.27,9.27,0,0,0,124.28,28.92Z"/><path class="cls-4" d="M311.39,51.43l-6.32-20.89V51.43h-5V25.8h9.35l4.5,15.34,4.73-15.34H328V51.43h-6V30.54L315.5,51.43Z"/><path class="cls-4" d="M345.69,25.8l8,25.63h-6.45l-1.58-5.28h-8.29l-1.6,5.28h-5.26l8.21-25.63Zm-6.86,15.62h5.43l-2.69-9Z"/><path class="cls-4" d="M362.57,41.91v9.52h-6.1V25.8h10.1a14.44,14.44,0,0,1,5.17.73,7.65,7.65,0,0,1,3.2,2.58,7.33,7.33,0,0,1,1.41,4.56,9.56,9.56,0,0,1-.75,3.7,6.62,6.62,0,0,1-2.12,2.83,7.68,7.68,0,0,1-2.66,1.37,17.07,17.07,0,0,1-4,.34Zm-.21-4.65h3.91a4,4,0,0,0,3.13-1,3.47,3.47,0,0,0,.9-2.36,3.19,3.19,0,0,0-1-2.48,4.41,4.41,0,0,0-3.05-.92h-3.89Z"/><path class="cls-4" d="M390.72,25.8l8,25.63h-6.45l-1.58-5.28h-8.28l-1.61,5.28h-5.26l8.21-25.63Zm-6.85,15.62h5.43l-2.69-9Z"/><path class="cls-4" d="M306,62.45V88.08h-6V62.45Z"/><path class="cls-4" d="M330.88,62.45V88.08h-5.12l-10-17.31c0,.44,0,.72,0,.86a10.28,10.28,0,0,1,.08,1.11V88.08h-4.68V62.45h6.47l8.72,15.11q-.12-1.12-.12-1.71V62.45Z"/><path class="cls-4" d="M352.26,62.45v5.07h-6.34V88.08h-6.08V67.52h-6.39V62.45Z"/><path class="cls-4" d="M373.14,67.33h-12.2v5.26h9.59v4.82h-9.59V83h12.2v5.07h-18.3V62.45h18.3Z"/><path class="cls-4" d="M382.79,77.92V88.08h-6.05V62.45H388a14.37,14.37,0,0,1,5,.72,6.47,6.47,0,0,1,3.12,2.66,7.76,7.76,0,0,1,1.24,4.29,6.83,6.83,0,0,1-4.45,6.63l4.73,11.33H391l-3.93-10.16Zm0-10.91v6.54h3.68a9.5,9.5,0,0,0,2.61-.26,2.9,2.9,0,0,0,1.46-1.12,3.36,3.36,0,0,0,.64-2,3.15,3.15,0,0,0-.64-1.92,2.65,2.65,0,0,0-1.39-1,13.18,13.18,0,0,0-2.82-.2Z"/><path class="cls-4" d="M414.6,62.45l8,25.63h-6.45l-1.58-5.28H406.3l-1.6,5.28h-5.26l8.21-25.63Zm-6.86,15.62h5.43l-2.69-9Z"/><path class="cls-4" d="M445.2,72l-6.29.39Q438.78,67,434.68,67,430,67,430,75.31c0,3.22.42,5.4,1.28,6.54a4.18,4.18,0,0,0,3.57,1.72c2.48,0,4-1.62,4.55-4.84l5.82.35a10.36,10.36,0,0,1-3.42,7A11.49,11.49,0,0,1,426.5,85q-3.19-3.51-3.19-9.71a14.34,14.34,0,0,1,3.08-9.49,10.35,10.35,0,0,1,8.41-3.7Q444,62.06,445.2,72Z"/><path class="cls-4" d="M464.89,62.45v5.07h-6.34V88.08h-6.08V67.52h-6.39V62.45Z"/><path class="cls-4" d="M473.45,62.45V88.08h-6V62.45Z"/><path class="cls-4" d="M497.65,62.45l-7.74,25.63h-6.45l-7.7-25.63h6.39l5.13,18.32,5.34-18.32Z"/><path class="cls-4" d="M509.07,88.47a9.34,9.34,0,0,1-8-3.89,15.57,15.57,0,0,1-2.83-9.4,15,15,0,0,1,2.87-9.37,9.69,9.69,0,0,1,8.18-3.75,9.14,9.14,0,0,1,8.09,4,15.87,15.87,0,0,1,2.73,9.16,15.49,15.49,0,0,1-2.81,9.41A9.58,9.58,0,0,1,509.07,88.47ZM509.24,67q-4.73,0-4.72,8.29t4.72,8.32q4.57,0,4.57-8.3T509.24,67Z"/><path class="cls-4" d="M320.71,108.63l-6.29.4q-.14-5.43-4.23-5.43-4.71,0-4.71,8.36,0,4.82,1.28,6.54a4.23,4.23,0,0,0,3.58,1.71q3.72,0,4.55-4.84l5.82.36a10.36,10.36,0,0,1-3.43,7,10.53,10.53,0,0,1-7,2.39A10.64,10.64,0,0,1,302,121.6q-3.18-3.51-3.18-9.7a14.37,14.37,0,0,1,3.08-9.5,10.35,10.35,0,0,1,8.41-3.7Q319.55,98.7,320.71,108.63Z"/><path class="cls-4" d="M344.36,99.1v16a14.26,14.26,0,0,1-.88,5.76,6.83,6.83,0,0,1-3.26,3.09,13.3,13.3,0,0,1-6.07,1.21,13.44,13.44,0,0,1-5.89-1.08,7.34,7.34,0,0,1-3.27-3.1,12.58,12.58,0,0,1-1.09-5.88v-16h6.51v16a9.77,9.77,0,0,0,.35,3,2.86,2.86,0,0,0,1.39,1.55,5.27,5.27,0,0,0,2.56.57,5.8,5.8,0,0,0,2.75-.56,2.79,2.79,0,0,0,1.41-1.49,9.85,9.85,0,0,0,.35-3.11v-16Z"/><path class="cls-4" d="M355.21,119.65H365.4v5.07H349.13V99.1h6.08Z"/><path class="cls-4" d="M382.64,99.1v5.07h-6.35v20.55h-6.08V104.17h-6.38V99.1Z"/><path class="cls-4" d="M405.4,99.1v16a14.26,14.26,0,0,1-.88,5.76,6.81,6.81,0,0,1-3.25,3.09,16.2,16.2,0,0,1-12,.13,7.36,7.36,0,0,1-3.28-3.1,12.71,12.71,0,0,1-1.09-5.88v-16h6.52v16a9.48,9.48,0,0,0,.35,3,2.84,2.84,0,0,0,1.38,1.55,5.31,5.31,0,0,0,2.57.57,5.82,5.82,0,0,0,2.75-.56,2.86,2.86,0,0,0,1.41-1.49,9.92,9.92,0,0,0,.34-3.11v-16Z"/><path class="cls-4" d="M416.22,114.56v10.16h-6.05V99.1h11.27a14.35,14.35,0,0,1,5,.72,6.42,6.42,0,0,1,3.13,2.65,7.84,7.84,0,0,1,1.23,4.3,6.82,6.82,0,0,1-4.45,6.62l4.74,11.33h-6.64l-3.93-10.16Zm0-10.9v6.53h3.68a9.72,9.72,0,0,0,2.62-.25,2.94,2.94,0,0,0,1.45-1.13,3.27,3.27,0,0,0,.64-2,3.06,3.06,0,0,0-.64-1.91,2.6,2.6,0,0,0-1.39-1,12.49,12.49,0,0,0-2.81-.2Z"/><path class="cls-4" d="M448,99.1l8,25.62H449.6L448,119.45h-8.28l-1.61,5.27h-5.26l8.21-25.62Zm-6.85,15.61h5.43l-2.69-9Z"/><path class="cls-4" d="M464.89,119.65h10.2v5.07H458.81V99.1h6.08Z"/></g></svg>