<svg id="Capa_2" data-name="Capa 2" xmlns="http://www.w3.org/2000/svg" xmlns:xlink="http://www.w3.org/1999/xlink" viewBox="0 0 144.77 74.95"><defs><style>.cls-1{fill:url(#Degradado_sin_nombre_11);}</style><linearGradient id="Degradado_sin_nombre_11" x1="28.3" y1="79.85" x2="112.89" y2="-4.74" gradientUnits="userSpaceOnUse"><stop offset="0.05" stop-color="#984d98"/><stop offset="0.51" stop-color="#3fa7cd"/><stop offset="0.95" stop-color="#e6be17"/></linearGradient></defs><path class="cls-1" d="M133,52.63v0a5.21,5.21,0,0,0-6.43-.68,17,17,0,1,1-.75-29.45,5.15,5.15,0,0,0,6.12-.86v0a5.15,5.15,0,0,0-1.19-8.17,27.07,27.07,0,0,0-14.2-3.29,27.31,27.31,0,1,0,15.62,50.45A5.12,5.12,0,0,0,133,52.63Z"/><path class="cls-1" d="M85,13.59a14.48,14.48,0,0,0-11.67-3.27,14.84,14.84,0,0,0-10,6.08,14,14,0,0,0-2,13.39c.71,2,8.1,23.47,12,33.51a2.33,2.33,0,0,0,4.34,0c3.15-8.11,8.66-23.77,11.38-32,1.27-3.63,1.9-5.83,1.06-9.44A15,15,0,0,0,85,13.59ZM75.32,30.18a5,5,0,1,1,5.12-5A5.05,5.05,0,0,1,75.32,30.18Z"/><path class="cls-1" d="M57.11,11.76a5.29,5.29,0,0,0-7.54,0l-14,14.05a1.66,1.66,0,0,1-2.35,0l-14-14a5.28,5.28,0,0,0-7.54,0,5.12,5.12,0,0,0-1.34,3.49V59.69a5.1,5.1,0,0,0,10.19,0V31.53a1.66,1.66,0,0,1,2.84-1.17l7.43,7.42a5.2,5.2,0,0,0,7.29,0l7.42-7.42a1.66,1.66,0,0,1,2.84,1.17V59.47a5.24,5.24,0,0,0,4.59,5.29,5.09,5.09,0,0,0,5.6-5.07V15.25A5.12,5.12,0,0,0,57.11,11.76Z"/></svg>