<svg id="Capa_2" data-name="Capa 2" xmlns="http://www.w3.org/2000/svg" viewBox="0 0 144.77 74.95"><defs><style>.cls-1{fill:#e6be17;}.cls-2{fill:#3fa7cd;}.cls-3{fill:#984d98;}</style></defs><path class="cls-1" d="M117.71,54.47a17,17,0,1,1,8.1-31.93,5.15,5.15,0,0,0,6.12-.87h0a5.16,5.16,0,0,0-1.19-8.18,27.3,27.3,0,1,0,1.42,47.17,5.13,5.13,0,0,0,.83-8h0a5.22,5.22,0,0,0-6.43-.69A16.89,16.89,0,0,1,117.71,54.47Z"/><path class="cls-2" d="M77.58,63.36a2.33,2.33,0,0,1-4.34,0c-3.87-10-11.26-31.49-12-33.5a14,14,0,0,1,2-13.39,14.85,14.85,0,0,1,10-6.09A14.56,14.56,0,0,1,85,13.64,15.06,15.06,0,0,1,90,21.88c.84,3.61.21,5.81-1.06,9.44C86.24,39.58,80.73,55.25,77.58,63.36ZM70.29,25.19a5.13,5.13,0,1,0,5.26-5.1A5.13,5.13,0,0,0,70.29,25.19Z"/><path class="cls-3" d="M57.11,11.82a5.28,5.28,0,0,0-7.54,0l-14,14.05a1.66,1.66,0,0,1-2.35,0l-14-14a5.28,5.28,0,0,0-7.54,0,5.1,5.1,0,0,0-1.34,3.49V59.74a5.1,5.1,0,0,0,5.1,5.1h0a5.09,5.09,0,0,0,5.09-5.1V31.59a1.67,1.67,0,0,1,2.84-1.18l7.43,7.43a5.2,5.2,0,0,0,7.29,0l7.42-7.43a1.67,1.67,0,0,1,2.84,1.18V59.52a5.25,5.25,0,0,0,4.59,5.3,5.1,5.1,0,0,0,5.6-5.08V15.31A5.1,5.1,0,0,0,57.11,11.82Z"/></svg>