<svg id="Capa_2" data-name="Capa 2" xmlns="http://www.w3.org/2000/svg" xmlns:xlink="http://www.w3.org/1999/xlink" viewBox="0 0 144.77 74.95"><defs><style>.cls-1{fill:#999;}.cls-2{fill:#aeaeae;}.cls-3{fill:#636363;}.cls-4{fill:url(#Degradado_sin_nombre_11);}.cls-5{fill:#616160;}</style><linearGradient id="Degradado_sin_nombre_11" x1="28.3" y1="79.88" x2="112.89" y2="-4.71" gradientUnits="userSpaceOnUse"><stop offset="0.05" stop-color="#984d98"/><stop offset="0.51" stop-color="#3fa7cd"/><stop offset="0.95" stop-color="#e6be17"/></linearGradient></defs><path class="cls-1" d="M117.71,54.44a17,17,0,1,1,8.1-31.93,5.15,5.15,0,0,0,6.12-.86v0a5.15,5.15,0,0,0-1.19-8.17,27.07,27.07,0,0,0-14.2-3.29,27.31,27.31,0,1,0,15.62,50.45,5.13,5.13,0,0,0,.83-8h0a5.21,5.21,0,0,0-6.43-.68A17,17,0,0,1,117.71,54.44Z"/><path class="cls-2" d="M77.58,63.33a2.33,2.33,0,0,1-4.34,0c-3.87-10-11.26-31.5-12-33.51a14,14,0,0,1,2-13.39,14.88,14.88,0,0,1,10-6.09A14.56,14.56,0,0,1,85,13.61,15.09,15.09,0,0,1,90,21.85c.84,3.61.21,5.81-1.06,9.44C86.24,39.55,80.73,55.22,77.58,63.33ZM70.3,25.16a5.11,5.11,0,1,0,5.25-5.09A5.13,5.13,0,0,0,70.3,25.16Z"/><path class="cls-3" d="M57.11,11.79a5.28,5.28,0,0,0-7.54,0l-14,14.05a1.66,1.66,0,0,1-2.35,0l-14-14a5.28,5.28,0,0,0-7.54,0,5.1,5.1,0,0,0-1.34,3.49V59.71a5.1,5.1,0,0,0,5.1,5.1h0a5.09,5.09,0,0,0,5.09-5.1V31.56a1.67,1.67,0,0,1,2.84-1.18l7.43,7.43a5.2,5.2,0,0,0,7.29,0l7.42-7.43a1.67,1.67,0,0,1,2.84,1.18V59.5a5.24,5.24,0,0,0,4.59,5.29,5.09,5.09,0,0,0,5.6-5.08V15.28A5.1,5.1,0,0,0,57.11,11.79Z"/><path class="cls-4" d="M133,52.65h0a5.21,5.21,0,0,0-6.43-.68,17,17,0,1,1-.75-29.45,5.14,5.14,0,0,0,6.12-.87h0a5.15,5.15,0,0,0-1.19-8.17,27.31,27.31,0,1,0,1.42,47.16A5.13,5.13,0,0,0,133,52.65Z"/><path class="cls-4" d="M85,13.61a14.56,14.56,0,0,0-11.67-3.27,14.88,14.88,0,0,0-10,6.09,14,14,0,0,0-2,13.39c.71,2,8.1,23.47,12,33.51a2.33,2.33,0,0,0,4.34,0c3.15-8.11,8.66-23.78,11.38-32,1.27-3.63,1.9-5.83,1.06-9.44A15.09,15.09,0,0,0,85,13.61Zm-9.63,16.6a5,5,0,1,1,5.12-5A5.05,5.05,0,0,1,75.32,30.21Z"/><path class="cls-4" d="M57.11,11.79a5.28,5.28,0,0,0-7.54,0l-14,14.05a1.66,1.66,0,0,1-2.35,0l-14-14a5.28,5.28,0,0,0-7.54,0,5.1,5.1,0,0,0-1.34,3.49V59.71a5.1,5.1,0,1,0,10.19,0V31.56a1.67,1.67,0,0,1,2.84-1.18l7.43,7.43a5.2,5.2,0,0,0,7.29,0l7.42-7.43a1.67,1.67,0,0,1,2.84,1.18V59.5a5.24,5.24,0,0,0,4.59,5.29,5.09,5.09,0,0,0,5.6-5.08V15.28A5.1,5.1,0,0,0,57.11,11.79Z"/><path class="cls-5" d="M117.71,54.44a17,17,0,1,1,8.1-31.93,5.15,5.15,0,0,0,6.12-.86v0a5.15,5.15,0,0,0-1.19-8.17,27.07,27.07,0,0,0-14.2-3.29,27.31,27.31,0,1,0,15.62,50.45,5.13,5.13,0,0,0,.83-8h0a5.21,5.21,0,0,0-6.43-.68A17,17,0,0,1,117.71,54.44Z"/><path class="cls-5" d="M77.58,63.33a2.33,2.33,0,0,1-4.34,0c-3.87-10-11.26-31.5-12-33.51a14,14,0,0,1,2-13.39,14.88,14.88,0,0,1,10-6.09A14.56,14.56,0,0,1,85,13.61,15.09,15.09,0,0,1,90,21.85c.84,3.61.21,5.81-1.06,9.44C86.24,39.55,80.73,55.22,77.58,63.33ZM70.29,25.16a5.13,5.13,0,1,0,5.26-5.11A5.14,5.14,0,0,0,70.29,25.16Z"/><path class="cls-5" d="M57.11,11.79a5.28,5.28,0,0,0-7.54,0l-14,14.05a1.66,1.66,0,0,1-2.35,0l-14-14a5.28,5.28,0,0,0-7.54,0,5.1,5.1,0,0,0-1.34,3.49V59.71a5.1,5.1,0,0,0,5.1,5.1h0a5.09,5.09,0,0,0,5.09-5.1V31.56a1.67,1.67,0,0,1,2.84-1.18l7.43,7.43a5.2,5.2,0,0,0,7.29,0l7.42-7.43a1.67,1.67,0,0,1,2.84,1.18V59.5a5.24,5.24,0,0,0,4.59,5.29,5.09,5.09,0,0,0,5.6-5.08V15.28A5.1,5.1,0,0,0,57.11,11.79Z"/></svg>