<svg xmlns="http://www.w3.org/2000/svg" xmlns:xlink="http://www.w3.org/1999/xlink" viewBox="0 0 150 150"><defs><style>.cls-1{fill:url(#Degradado_sin_nombre_11);}</style><linearGradient id="Degradado_sin_nombre_11" x1="32.05" y1="116.3" x2="114.46" y2="33.9" gradientUnits="userSpaceOnUse"><stop offset="0.05" stop-color="#984d97"/><stop offset="0.51" stop-color="#3fa7cc"/><stop offset="0.95" stop-color="#e5bd15"/></linearGradient></defs><g id="Capa_2" data-name="Capa 2"><path class="cls-1" d="M134.05,89.79v0a5.09,5.09,0,0,0-6.27-.67A16.55,16.55,0,1,1,127,60.42a5,5,0,0,0,6-.84h0a5,5,0,0,0-1.16-8,26.6,26.6,0,1,0,1.38,45.94A5,5,0,0,0,134.05,89.79Z"/><path class="cls-1" d="M87.24,51.75a14.15,14.15,0,0,0-11.37-3.18,14.47,14.47,0,0,0-9.76,5.93,13.64,13.64,0,0,0-1.93,13c.68,2,7.89,22.87,11.66,32.64a2.26,2.26,0,0,0,4.22,0C83.13,92.28,88.5,77,91.15,69c1.24-3.53,1.85-5.68,1-9.19A14.64,14.64,0,0,0,87.24,51.75ZM77.85,67.92a4.9,4.9,0,1,1,5-4.85A4.91,4.91,0,0,1,77.85,67.92Z"/><path class="cls-1" d="M60.12,50a5.13,5.13,0,0,0-7.34,0L39.09,63.68a1.62,1.62,0,0,1-2.29,0L23.12,50a5.13,5.13,0,0,0-7.34,0,5,5,0,0,0-1.31,3.39V96.66a5,5,0,1,0,9.93,0V69.23a1.62,1.62,0,0,1,2.76-1.14l7.24,7.23a5.07,5.07,0,0,0,7.1,0l7.23-7.23a1.62,1.62,0,0,1,2.76,1.14V96.45A5.12,5.12,0,0,0,56,101.61a5,5,0,0,0,5.46-5V53.41s0,0,0,0A4.94,4.94,0,0,0,60.12,50Z"/></g></svg>